<?xml version="1.0" standalone="no"?><!DOCTYPE svg PUBLIC "-//W3C//DTD SVG 1.1//EN" "http://www.w3.org/Graphics/SVG/1.1/DTD/svg11.dtd"><svg t="1718607805187" class="icon" viewBox="0 0 1024 1024" version="1.1" xmlns="http://www.w3.org/2000/svg" p-id="19322" xmlns:xlink="http://www.w3.org/1999/xlink" width="200" height="200"><path d="M179.456 121.088A2118.0928 2118.0928 0 0 1 460.8 102.4c95.3856 0 189.2864 6.3488 281.344 18.688 63.8464 8.5504 111.616 56.7296 124.672 116.1216a227.84 227.84 0 0 0-29.5424-3.5328 2208.8192 2208.8192 0 0 0-240.9472 0C472.5248 240.4352 384 344.4224 384 460.6976v114.688c0 72.3456 34.304 140.032 90.112 182.3744l-152.576 152.576A38.4 38.4 0 0 1 256 883.2v-176.2816c-25.6512-2.4576-51.2-5.4272-76.544-8.8064C104.0896 688.0256 51.2 622.6944 51.2 548.864V270.336c0-73.7792 52.8896-139.1104 128.256-149.1968z" p-id="19323"></path><path d="M716.8 307.2c-39.0144 0-77.824 1.024-116.2752 3.1744C520.0384 314.7776 460.8 382.5664 460.8 460.6976v114.688c0 77.7728 58.7264 145.3568 138.752 150.272 10.9568 0.6656 21.9136 1.2288 32.8704 1.7408 10.24 0.4608 19.712 4.608 26.5216 11.4688l120.32 120.32a38.4 38.4 0 0 0 65.536-27.1872v-105.984c74.3936-9.984 128-74.9056 128-149.248V460.6976c0-78.1312-59.2384-145.92-139.7248-150.3232A2132.224 2132.224 0 0 0 716.8 307.2z" p-id="19324"></path></svg>