<?xml version="1.0" standalone="no"?><!DOCTYPE svg PUBLIC "-//W3C//DTD SVG 1.1//EN" "http://www.w3.org/Graphics/SVG/1.1/DTD/svg11.dtd"><svg t="1718607796128" class="icon" viewBox="0 0 1024 1024" version="1.1" xmlns="http://www.w3.org/2000/svg" p-id="19175" xmlns:xlink="http://www.w3.org/1999/xlink" width="200" height="200"><path d="M209.621333 113.408c88.533333-11.52 178.773333-17.408 270.378667-17.408 91.605333 0 181.845333 5.930667 270.378667 17.408C836.053333 124.501333 896 199.125333 896 283.221333v59.136c38.869333 21.76 64 63.701333 64 110.250667v182.869333c0 64.298667-48.128 120.106667-113.92 125.44-4.693333 0.426667-9.386667 0.768-14.08 1.109334v101.973333a32 32 0 0 1-54.613333 22.613333L658.688 768a2136.576 2136.576 0 0 1-160.810667-7.04 122.752 122.752 0 0 1-24.917333-4.650667L310.613333 918.613333A32 32 0 0 1 256 896v-171.946667a2070.485333 2070.485333 0 0 1-46.378667-5.461333C123.946667 707.413333 64 632.874667 64 548.778667V283.221333c0-84.053333 59.946667-158.634667 145.621333-169.770666z m207.701334 608A127.018667 127.018667 0 0 1 384 635.52v-182.869333c0-64.213333 48-119.936 113.664-125.44a2107.392 2107.392 0 0 1 334.336-1.109334V283.178667c0-54.272-38.357333-99.626667-89.856-106.282667a2035.370667 2035.370667 0 0 0-262.144-16.896c-88.832 0-176.341333 5.76-262.144 16.896C166.4 183.594667 128 228.949333 128 283.178667v265.642666c0 54.272 38.357333 99.626667 89.856 106.282667 24.234667 3.157333 48.64 5.888 73.088 8.149333a32 32 0 0 1 29.056 31.872v123.605334l97.28-97.28zM672 384c-56.917333 0-113.322667 2.346667-169.045333 6.997333-30.848 2.56-54.954667 29.013333-54.954667 61.610667v182.869333c0 23.893333 13.141333 44.8 32.341333 55.04 6.826667 3.584 14.464 5.973333 22.741334 6.613334 55.68 4.565333 112.042667 6.869333 168.917333 6.869333a32 32 0 0 1 22.613333 9.386667L768 786.773333v-54.613333a32 32 0 0 1 30.08-32c14.293333-0.853333 28.586667-1.877333 42.837333-2.986667 30.890667-2.56 55.082667-29.013333 55.082667-61.696v-182.869333c0-27.733333-17.621333-51.2-41.813333-59.008a58.794667 58.794667 0 0 0-13.141334-2.602667A2043.306667 2043.306667 0 0 0 672 384z" p-id="19176"></path></svg>