<?xml version="1.0" standalone="no"?><!DOCTYPE svg PUBLIC "-//W3C//DTD SVG 1.1//EN" "http://www.w3.org/Graphics/SVG/1.1/DTD/svg11.dtd"><svg t="1718607531188" class="icon" viewBox="0 0 1024 1024" version="1.1" xmlns="http://www.w3.org/2000/svg" p-id="8404" xmlns:xlink="http://www.w3.org/1999/xlink" width="200" height="200"><path d="M853.333333 938.666667H256a128 128 0 0 1-128-128V213.333333a128 128 0 0 1 128-128h597.333333a42.666667 42.666667 0 0 1 42.666667 42.666667v768a42.666667 42.666667 0 0 1-42.666667 42.666667z m-42.666666-85.333334v-85.333333H256a42.666667 42.666667 0 0 0 0 85.333333h554.666667z m-298.666667-426.666666a85.333333 85.333333 0 1 0 0-170.666667 85.333333 85.333333 0 0 0 0 170.666667z m-128 170.666666h256a128 128 0 0 0-256 0z" p-id="8405"></path></svg>