<?xml version="1.0" standalone="no"?><!DOCTYPE svg PUBLIC "-//W3C//DTD SVG 1.1//EN" "http://www.w3.org/Graphics/SVG/1.1/DTD/svg11.dtd"><svg t="1718607930070" class="icon" viewBox="0 0 1024 1024" version="1.1" xmlns="http://www.w3.org/2000/svg" p-id="24747" xmlns:xlink="http://www.w3.org/1999/xlink" width="200" height="200"><path d="M597.333 85.333c10.667 0 19.627 7.68 20.907 17.92l16.213 113.067c26.027 10.667 49.92 24.747 72.107 41.813l106.24-42.666c9.387-3.414 20.907 0 26.027 9.386L924.16 372.48c5.12 9.387 2.987 20.907-5.12 27.307l-90.027 70.4C830.72 483.84 832 497.493 832 512c0 14.507-1.28 28.16-2.987 41.813l90.027 70.4c8.107 6.4 10.24 17.92 5.12 27.307l-85.333 147.627c-5.12 9.386-16.214 13.226-26.027 9.386l-106.24-42.666c-22.187 16.64-46.08 31.146-72.107 41.813L618.24 920.747c-1.28 10.24-10.24 17.92-20.907 17.92H426.667c-10.667 0-19.627-7.68-20.907-17.92L389.547 807.68c-26.027-10.667-49.92-24.747-72.107-41.813L211.2 808.533c-9.387 3.414-20.907 0-26.027-9.386L99.84 651.52a21.547 21.547 0 0 1 5.12-27.307l90.027-70.4A338.347 338.347 0 0 1 192 512c0-14.08 1.28-28.16 2.987-41.813l-90.027-70.4a21.035 21.035 0 0 1-5.12-27.307l85.333-147.627c5.12-9.386 16.214-13.226 26.027-9.386l106.24 42.666c22.187-16.64 46.08-31.146 72.107-41.813l16.213-113.067c1.28-10.24 10.24-17.92 20.907-17.92zM512 362.667c-82.347 0-149.333 66.986-149.333 149.333S429.653 661.333 512 661.333 661.333 594.347 661.333 512 594.347 362.667 512 362.667z" p-id="24748"></path></svg>