<?xml version="1.0" standalone="no"?><!DOCTYPE svg PUBLIC "-//W3C//DTD SVG 1.1//EN" "http://www.w3.org/Graphics/SVG/1.1/DTD/svg11.dtd"><svg t="1718607925332" class="icon" viewBox="0 0 1024 1024" version="1.1" xmlns="http://www.w3.org/2000/svg" p-id="24602" xmlns:xlink="http://www.w3.org/1999/xlink" width="200" height="200"><path d="M829.013 553.813C830.72 540.16 832 526.507 832 512c0-14.507-1.28-28.16-2.987-41.813l90.027-70.4c8.107-6.4 10.24-17.92 5.12-27.307l-85.333-147.627a21.333 21.333 0 0 0-26.027-9.386l-106.24 42.666c-22.187-17.066-46.08-31.146-72.107-41.813L618.24 103.253a20.821 20.821 0 0 0-20.907-17.92H426.667c-10.667 0-19.627 7.68-20.907 17.92L389.547 216.32c-26.027 10.667-49.92 25.173-72.107 41.813L211.2 215.467a24.15 24.15 0 0 0-7.68-1.28c-7.253 0-14.507 3.84-18.347 10.666L99.84 372.48c-5.547 9.387-2.987 20.907 5.12 27.307l90.027 70.4C193.28 483.84 192 497.92 192 512c0 14.08 1.28 28.16 2.987 41.813l-90.027 70.4c-8.107 6.4-10.24 17.92-5.12 27.307l85.333 147.627a21.333 21.333 0 0 0 26.027 9.386l106.24-42.666c22.187 17.066 46.08 31.146 72.107 41.813l16.213 113.067c1.28 10.24 10.24 17.92 20.907 17.92h170.666c10.667 0 19.627-7.68 20.907-17.92l16.213-113.067c26.027-10.667 49.92-25.173 72.107-41.813l106.24 42.666c2.56 0.854 5.12 1.28 7.68 1.28 7.253 0 14.507-3.84 18.347-10.666L924.16 651.52c5.12-9.387 2.987-20.907-5.12-27.307l-90.027-70.4z m-84.48-72.96c1.707 13.227 2.134 22.187 2.134 31.147 0 8.96-0.854 18.347-2.134 31.147l-5.973 48.213 37.973 29.867 46.08 35.84-29.866 51.626-54.187-21.76-44.373-17.92-38.4 29.014c-18.347 13.653-35.84 23.893-53.334 31.146l-45.226 18.347-6.827 48.213-8.533 57.6h-59.734l-8.106-57.6-6.827-48.213-45.227-18.347c-18.346-7.68-35.413-17.493-52.48-30.293l-38.826-29.867-45.227 18.347-54.187 21.76-29.866-51.627 46.08-35.84 37.973-29.866-5.973-48.214c-1.28-13.226-2.134-23.04-2.134-31.573s0.854-18.347 2.134-31.147l5.973-48.213-37.973-29.867-46.08-35.84 29.866-51.626 54.187 21.76 44.373 17.92 38.4-29.014c18.347-13.653 35.84-23.893 53.334-31.146l45.226-18.347 6.827-48.213 8.533-57.6h59.307l8.107 57.6 6.826 48.213 45.227 18.347c18.347 7.68 35.413 17.493 52.48 30.293l38.827 29.867 45.226-18.347 54.187-21.76 29.867 51.627-45.654 36.266-37.973 29.867 5.973 48.213zM512 341.333c-94.293 0-170.667 76.374-170.667 170.667S417.707 682.667 512 682.667 682.667 606.293 682.667 512 606.293 341.333 512 341.333z m0 256c-46.933 0-85.333-38.4-85.333-85.333s38.4-85.333 85.333-85.333 85.333 38.4 85.333 85.333-38.4 85.333-85.333 85.333z" fill="#08979C" p-id="24603"></path></svg>